<svg width="300" height="300" viewBox="0 0 300 300" fill="none" xmlns="http://www.w3.org/2000/svg">
<path fill-rule="evenodd" clip-rule="evenodd" d="M177.96 246.048C229.497 232.238 260.082 179.264 246.273 127.726C232.463 76.1886 179.489 45.6038 127.951 59.4133C76.4133 73.2228 45.8285 126.197 59.638 177.735C73.4475 229.273 126.422 259.857 177.96 246.048ZM176.848 241.9C226.095 228.705 255.321 178.085 242.125 128.838C228.929 79.5904 178.309 50.365 129.062 63.5607C79.8152 76.7564 50.5897 127.376 63.7855 176.624C76.9812 225.871 127.601 255.096 176.848 241.9Z" fill="white"/>
<path d="M138.462 56.3259C140.303 63.1976 136.225 70.2608 129.354 72.1021C122.482 73.9433 115.419 69.8654 113.578 62.9937C111.736 56.122 115.814 49.0587 122.686 47.2175C129.558 45.3762 136.621 49.4542 138.462 56.3259Z" fill="#0154A4"/>
<path d="M138.404 238.595C140.245 245.467 136.167 252.53 129.295 254.371C122.424 256.212 115.36 252.134 113.519 245.263C111.678 238.391 115.756 231.328 122.627 229.487C129.499 227.645 136.562 231.723 138.404 238.595Z" fill="#FFC20F"/>
<path d="M71.8852 123.062C73.7265 129.934 69.6485 136.997 62.7768 138.839C55.9051 140.68 48.8418 136.602 47.0006 129.73C45.1593 122.858 49.2373 115.795 56.109 113.954C62.9807 112.113 70.0439 116.191 71.8852 123.062Z" fill="#00A88F"/>
<path d="M71.6672 172.018C73.5084 178.89 69.4305 185.953 62.5588 187.794C55.6871 189.636 48.6238 185.558 46.7825 178.686C44.9413 171.814 49.0192 164.751 55.8909 162.91C62.7626 161.068 69.8259 165.146 71.6672 172.018Z" fill="#8DFD07"/>
<path d="M187.359 238.813C189.201 245.685 185.123 252.748 178.251 254.589C171.379 256.43 164.316 252.352 162.475 245.481C160.633 238.609 164.711 231.546 171.583 229.705C178.455 227.863 185.518 231.941 187.359 238.813Z" fill="#F78F1E"/>
<path d="M254.154 123.121C255.996 129.992 251.918 137.056 245.046 138.897C238.174 140.738 231.111 136.66 229.27 129.789C227.428 122.917 231.506 115.854 238.378 114.012C245.25 112.171 252.313 116.249 254.154 123.121Z" fill="#E63F97"/>
<path d="M187.418 56.5438C189.259 63.4155 185.181 70.4788 178.309 72.32C171.438 74.1613 164.374 70.0833 162.533 63.2116C160.692 56.3399 164.77 49.2767 171.642 47.4354C178.513 45.5941 185.577 49.6721 187.418 56.5438Z" fill="#6B439B"/>
<path d="M253.936 172.076C255.778 178.948 251.7 186.011 244.828 187.853C237.956 189.694 230.893 185.616 229.052 178.744C227.21 171.873 231.288 164.809 238.16 162.968C245.032 161.127 252.095 165.205 253.936 172.076Z" fill="#C84C56"/>
<path d="M96.1742 80.9925C98.0155 87.8641 93.9375 94.9274 87.0658 96.7687C80.1941 98.6099 73.1309 94.532 71.2896 87.6603C69.4484 80.7886 73.5263 73.7253 80.398 71.8841C87.2697 70.0428 94.333 74.1208 96.1742 80.9925Z" fill="#0092CE"/>
<path d="M229.488 80.8328C231.329 87.7045 227.251 94.7678 220.379 96.6091C213.508 98.4503 206.444 94.3724 204.603 87.5007C202.762 80.629 206.84 73.5657 213.711 71.7244C220.583 69.8832 227.646 73.9611 229.488 80.8328Z" fill="#A64499"/>
<path d="M96.3338 214.306C98.1751 221.178 94.0971 228.241 87.2254 230.082C80.3537 231.923 73.2905 227.845 71.4492 220.974C69.6079 214.102 73.6859 207.039 80.5576 205.198C87.4293 203.356 94.4925 207.434 96.3338 214.306Z" fill="#FEF200"/>
<path d="M229.647 214.146C231.489 221.018 227.411 228.081 220.539 229.923C213.667 231.764 206.604 227.686 204.763 220.814C202.921 213.942 206.999 206.879 213.871 205.038C220.743 203.197 227.806 207.275 229.647 214.146Z" fill="#F37020"/>
<path fill-rule="evenodd" clip-rule="evenodd" d="M235.134 203.258L152.362 56.4176L70.6337 203.258L235.134 203.258ZM138.634 118.418C137.529 118.418 136.634 119.313 136.634 120.418L136.634 184.962C136.634 186.066 137.529 186.962 138.634 186.962L180.042 186.962C181.146 186.962 182.042 186.066 182.042 184.962L182.042 181.282C182.042 180.177 181.146 179.282 180.042 179.282L147.754 179.282C146.649 179.282 145.754 178.386 145.754 177.282L145.754 120.418C145.754 119.313 144.858 118.418 143.754 118.418L138.634 118.418Z" fill="white"/>
</svg>
