<svg width="71" height="61" viewBox="0 0 71 61" fill="none" xmlns="http://www.w3.org/2000/svg">
<path d="M35.6787 60.5994C52.4128 60.5994 65.9784 47.0338 65.9784 30.2997C65.9784 13.5657 52.4128 0 35.6787 0C18.9446 0 5.379 13.5657 5.379 30.2997C5.379 47.0338 18.9446 60.5994 35.6787 60.5994Z" fill="url(#paint0_radial)"/>
<path d="M35.6787 11.1479C40.9669 11.1479 45.7554 13.2916 49.2211 16.7579C52.6868 20.2236 54.8305 25.0115 54.8305 30.2997C54.8305 35.5885 52.6868 40.3769 49.2211 43.8421C45.7554 47.3078 40.9669 49.4521 35.6787 49.4521C30.3899 49.4521 25.6021 47.3078 22.1363 43.8421C18.6706 40.3769 16.5269 35.5885 16.5269 30.2997C16.5269 25.0115 18.6706 20.2236 22.1363 16.7579C25.6021 13.2916 30.3899 11.1479 35.6787 11.1479ZM48.5936 17.3854C45.2884 14.0802 40.7223 12.0355 35.6787 12.0355C30.6351 12.0355 26.069 14.0802 22.7638 17.3854C19.4587 20.69 17.4145 25.2562 17.4145 30.2997C17.4145 35.3438 19.4587 39.91 22.7638 43.2146C26.069 46.5198 30.6351 48.5645 35.6787 48.5645C40.7223 48.5645 45.2884 46.5198 48.5936 43.2146C51.8987 39.91 53.9429 35.3438 53.9429 30.2997C53.9429 25.2562 51.8987 20.69 48.5936 17.3854Z" fill="#FEFEFE"/>
<path d="M35.6788 43.4649C42.9497 43.4649 48.8439 37.5707 48.8439 30.2998C48.8439 23.0288 42.9497 17.1346 35.6788 17.1346C28.4079 17.1346 22.5136 23.0288 22.5136 30.2998C22.5136 37.5707 28.4079 43.4649 35.6788 43.4649Z" fill="#FEFEFE" stroke="#B26950" stroke-width="0.1" stroke-miterlimit="2.61313"/>
<path fill-rule="evenodd" clip-rule="evenodd" d="M35.6788 12.9646C45.2527 12.9646 53.0141 20.7259 53.0141 30.2999C53.0141 39.8745 45.2527 47.6358 35.6788 47.6358C26.1042 47.6358 18.3429 39.8745 18.3429 30.2999C18.3429 20.7259 26.1042 12.9646 35.6788 12.9646ZM19.2074 34.0566C19.0776 33.4869 19.4378 32.9144 20.0075 32.7845L25.7165 31.4834C26.2862 31.3537 26.8587 31.7133 26.9885 32.283C27.1189 32.8528 26.7587 33.4253 26.1889 33.5551L20.4799 34.8567C19.9096 34.9866 19.3377 34.6263 19.2074 34.0566ZM18.8972 29.833C18.9467 30.5667 19.2266 30.8928 19.6776 30.9164C21.6629 30.4803 23.6481 30.0447 25.6334 29.6092C26.8862 28.8586 27.2778 27.8879 26.5562 26.6268C25.0082 25.2124 23.4606 23.7979 21.9131 22.384C20.9479 21.8908 20.5113 22.5721 20.1906 23.5131C19.2536 25.6788 18.8103 27.7867 18.8972 29.833ZM42.9963 45.529C42.4694 45.7825 41.8315 45.5587 41.5785 45.0318L39.0405 39.7546C38.7876 39.2277 39.0114 38.5898 39.5377 38.3368C40.0645 38.0833 40.7025 38.3071 40.956 38.834L43.4934 44.1112C43.747 44.6375 43.5231 45.276 42.9963 45.529ZM52.1435 34.077C52.0132 34.6467 51.4407 35.0058 50.8709 34.8754L45.1631 33.5683C44.5934 33.4379 44.2342 32.8649 44.3646 32.2952C44.4949 31.7254 45.0679 31.3662 45.6377 31.4966L51.3456 32.8038C51.9148 32.9342 52.2744 33.5072 52.1435 34.077ZM24.8559 43.1246C25.4602 43.5437 25.8903 43.5283 26.1895 43.1901C27.087 41.3664 27.9844 39.5428 28.882 37.7193C29.0767 36.2718 28.5614 35.36 27.126 35.1378C25.0549 35.4661 22.9843 35.7939 20.9138 36.1216C19.9262 36.5688 20.1863 37.3348 20.7219 38.1724C21.8306 40.2556 23.2021 41.9164 24.8559 43.1246ZM38.963 46.7548C39.6675 46.5436 39.9232 46.1983 39.8457 45.7534C38.9795 43.9143 38.1139 42.0753 37.2477 40.2369C36.238 39.182 35.2036 39.016 34.1345 39.9998C33.1 41.8234 32.0651 43.6465 31.0301 45.4696C30.7634 46.52 31.525 46.795 32.5138 46.8983C34.833 47.3311 36.9871 47.2943 38.963 46.7548ZM48.895 19.7839C49.259 20.2414 49.1826 20.9135 48.7257 21.2775L44.144 24.9243C43.687 25.2883 43.015 25.2119 42.6509 24.7543C42.2869 24.2973 42.3633 23.6252 42.8209 23.2612L47.4019 19.6145C47.8594 19.2505 48.5309 19.3269 48.895 19.7839ZM39.871 14.0359C39.145 13.9199 38.7645 14.1205 38.6413 14.555C38.6226 16.5871 38.6039 18.6197 38.5852 20.6522C39.0373 22.0403 39.8963 22.6392 41.2865 22.2174C43.0106 21.0245 44.7346 19.8318 46.4588 18.6389C47.155 17.8079 46.5885 17.23 45.7427 16.7075C43.8416 15.3106 41.8854 14.4082 39.871 14.0359ZM25.5718 16.8862C25.0291 17.3823 24.9483 17.8046 25.2116 18.172C26.79 19.4523 28.3689 20.7326 29.9472 22.0128C31.315 22.5237 32.3186 22.2245 32.8542 20.8739C32.9944 18.7819 33.1353 16.6905 33.2755 14.5985C33.0593 13.5366 32.2543 13.6202 31.3188 13.9561C29.0415 14.5737 27.1172 15.5422 25.5718 16.8862ZM50.5976 37.9909C50.8715 37.3084 50.7609 36.8932 50.365 36.676C48.3874 36.2063 46.4098 35.7361 44.4322 35.2665C42.9782 35.399 42.2033 36.1035 42.3056 37.5526C43.0859 39.4989 43.8657 41.4451 44.6456 43.3908C45.3011 44.2542 45.9902 43.8302 46.6875 43.1219C48.4726 41.5788 49.787 39.8723 50.5976 37.9909ZM51.0019 23.4311C50.6394 22.791 50.2451 22.6183 49.8288 22.7932C48.2285 24.046 46.6276 25.2987 45.0273 26.5515C44.2238 27.7708 44.2914 28.8157 45.4881 29.6394C47.4965 30.2433 49.5038 30.8471 51.5117 31.4515C52.595 31.4774 52.6934 30.6739 52.5747 29.6873C52.4812 27.3297 51.9665 25.2377 51.0019 23.4311ZM22.4735 19.7691C22.8375 19.3126 23.5096 19.2367 23.9666 19.6013L28.5443 23.2529C29.0008 23.6176 29.0767 24.289 28.712 24.7461C28.3474 25.2031 27.676 25.2784 27.2189 24.9144L22.6412 21.2627C22.1848 20.8981 22.1089 20.2261 22.4735 19.7691ZM28.3397 45.5196C27.8135 45.2656 27.5907 44.6276 27.8442 44.1008L30.3872 38.8263C30.6413 38.3 31.2797 38.0772 31.806 38.3308C32.3323 38.5848 32.5556 39.2228 32.3015 39.7496L29.7586 45.0241C29.505 45.5504 28.8666 45.7732 28.3397 45.5196ZM35.6788 13.4123C36.2634 13.4123 36.7412 13.8907 36.7412 14.4747V20.3305C36.7412 20.9151 36.2634 21.3931 35.6788 21.3931C35.0942 21.3931 34.6163 20.9151 34.6163 20.3305V14.4747C34.6163 13.8907 35.0942 13.4123 35.6788 13.4123Z" fill="#FEFEFE" stroke="#B26950" stroke-width="0.1" stroke-miterlimit="2.61313"/>
<path fill-rule="evenodd" clip-rule="evenodd" d="M35.6823 24.0787C36.208 24.0787 36.6348 24.5055 36.6348 25.0312C36.6348 25.5575 36.208 25.9837 35.6823 25.9837C35.1559 25.9837 34.7298 25.5575 34.7298 25.0312C34.7298 24.5055 35.1559 24.0787 35.6823 24.0787ZM35.6823 23.2961C36.6402 23.2961 37.4173 24.0732 37.4173 25.0312C37.4173 25.9898 36.6402 26.7668 35.6823 26.7668C34.7236 26.7668 33.9466 25.9898 33.9466 25.0312C33.9466 24.0732 34.7236 23.2961 35.6823 23.2961Z" fill="#B26950" stroke="#B26950" stroke-width="0.1" stroke-miterlimit="2.61313"/>
<path d="M37.9632 25.5332C37.7339 26.5819 36.7995 27.3672 35.682 27.3672C35.34 27.3672 35.015 27.2935 34.7224 27.1621L37.9632 25.5332ZM33.3937 24.5603C33.612 23.4967 34.5535 22.696 35.682 22.696C35.8866 22.696 36.0846 22.7224 36.2738 22.7719L33.3937 24.5603Z" stroke="#B26950" stroke-width="0.1" stroke-miterlimit="2.61313"/>
<path fill-rule="evenodd" clip-rule="evenodd" d="M29.7469 28.337C29.9091 27.8365 30.4464 27.5626 30.9469 27.7254C31.4473 27.8882 31.7212 28.4255 31.5584 28.9254C31.3956 29.4258 30.8583 29.6997 30.3584 29.537C29.858 29.3747 29.5841 28.8374 29.7469 28.337ZM29.0022 28.095C29.2981 27.1837 30.2776 26.6849 31.1888 26.9808C32.1001 27.2772 32.5995 28.2561 32.303 29.1673C32.0066 30.0791 31.0277 30.5779 30.1165 30.2816C29.2047 29.9856 28.7058 29.0068 29.0022 28.095Z" fill="#B26950" stroke="#B26950" stroke-width="0.1" stroke-miterlimit="2.61313"/>
<path d="M31.8346 26.6164C32.7612 27.1592 33.2193 28.2904 32.8739 29.3535C32.7684 29.6785 32.5979 29.9645 32.3823 30.202L31.8346 26.6164ZM29.4973 30.6618C28.5531 30.1256 28.0828 28.9828 28.4315 27.9099C28.4947 27.7152 28.5811 27.5348 28.6867 27.3698L29.4973 30.6618Z" stroke="#B26950" stroke-width="0.1" stroke-miterlimit="2.61313"/>
<path fill-rule="evenodd" clip-rule="evenodd" d="M31.9626 35.2973C31.537 34.9882 31.4424 34.3926 31.7515 33.9669C32.0611 33.5412 32.6566 33.4472 33.0823 33.7563C33.5079 34.0654 33.602 34.6609 33.2929 35.0866C32.9839 35.5123 32.3883 35.6069 31.9626 35.2973ZM31.5023 35.9308C30.7269 35.3676 30.5547 34.2821 31.1185 33.5066C31.6816 32.7312 32.7672 32.5596 33.5421 33.1228C34.3175 33.6864 34.4896 34.7715 33.9265 35.5469C33.3628 36.3224 32.2777 36.4939 31.5023 35.9308Z" fill="#B26950" stroke="#B26950" stroke-width="0.1" stroke-miterlimit="2.61313"/>
<path d="M30.9711 32.78C31.7734 32.0661 32.991 31.9803 33.8951 32.637C34.1718 32.8383 34.3912 33.0885 34.5501 33.3673L30.9711 32.78ZM34.0958 36.2529C33.2946 36.9854 32.0622 37.0795 31.1493 36.4162C30.9837 36.2958 30.8391 36.1577 30.7148 36.007L34.0958 36.2529Z" stroke="#B26950" stroke-width="0.1" stroke-miterlimit="2.61313"/>
<path fill-rule="evenodd" clip-rule="evenodd" d="M39.2673 35.3399C38.8416 35.6495 38.246 35.5549 37.9369 35.1292C37.6279 34.7035 37.7219 34.108 38.1476 33.7989C38.5733 33.4898 39.1688 33.5838 39.4779 34.0095C39.787 34.4352 39.693 35.0308 39.2673 35.3399ZM39.7275 35.9733C38.9521 36.5365 37.8665 36.365 37.3034 35.5895C36.7403 34.8141 36.9118 33.729 37.6873 33.1654C38.4627 32.6022 39.5483 32.7743 40.1114 33.5492C40.6746 34.3247 40.503 35.4102 39.7275 35.9733Z" fill="#B26950" stroke="#B26950" stroke-width="0.1" stroke-miterlimit="2.61313"/>
<path d="M36.5669 35.5051C36.1358 34.5218 36.4305 33.3372 37.3347 32.68C37.6113 32.4793 37.917 32.3478 38.231 32.2824L36.5669 35.5051ZM40.8356 33.6061C41.2843 34.5949 40.9928 35.796 40.0799 36.4592C39.9144 36.5796 39.7384 36.6748 39.5564 36.7457L40.8356 33.6061Z" stroke="#B26950" stroke-width="0.1" stroke-miterlimit="2.61313"/>
<path fill-rule="evenodd" clip-rule="evenodd" d="M41.5651 28.4059C41.7279 28.9058 41.4541 29.4431 40.9536 29.6059C40.4537 29.7687 39.9164 29.4948 39.7536 28.9943C39.5908 28.4939 39.8647 27.9567 40.3652 27.7944C40.8656 27.6316 41.4029 27.9055 41.5651 28.4059ZM42.3097 28.164C42.6062 29.0752 42.1074 30.0541 41.1956 30.3505C40.2843 30.6464 39.3054 30.1476 39.009 29.2363C38.7131 28.3251 39.2119 27.3457 40.1231 27.0497C41.035 26.7534 42.0139 27.2522 42.3097 28.164Z" fill="#B26950" stroke="#B26950" stroke-width="0.1" stroke-miterlimit="2.61313"/>
<path d="M40.8877 31.025C39.8191 31.1312 38.7836 30.4849 38.4383 29.4219C38.3327 29.0969 38.3024 28.7653 38.3376 28.4463L40.8877 31.025ZM40.401 26.3785C41.48 26.257 42.532 26.9054 42.8807 27.9783C42.9439 28.173 42.9802 28.3699 42.9918 28.5651L40.401 26.3785Z" stroke="#B26950" stroke-width="0.1" stroke-miterlimit="2.61313"/>
<path d="M35.6787 12.4341C40.6117 12.4341 45.0784 14.4337 48.311 17.6668C51.544 20.9 53.5436 25.3666 53.5436 30.2991C53.5436 35.2326 51.544 39.6987 48.311 42.9318C45.0784 46.1644 40.6117 48.1645 35.6787 48.1645C30.7457 48.1645 26.2791 46.1644 23.0459 42.9318C19.8134 39.6987 17.8138 35.2326 17.8138 30.2991C17.8138 25.3666 19.8134 20.9 23.0459 17.6668C26.2791 14.4337 30.7457 12.4341 35.6787 12.4341ZM47.6834 18.2943C44.6115 15.2223 40.367 13.3217 35.6787 13.3217C30.9905 13.3217 26.746 15.2223 23.6735 18.2943C20.6015 21.3663 18.7014 25.6114 18.7014 30.2991C18.7014 34.9879 20.6015 39.2324 23.6735 42.3043C26.746 45.3763 30.9905 47.277 35.6787 47.277C40.367 47.277 44.6115 45.3763 47.6834 42.3043C50.756 39.2324 52.6561 34.9879 52.6561 30.2991C52.6561 25.6114 50.756 21.3663 47.6834 18.2943Z" fill="#FEFEFE"/>
<path d="M35.827 0.00109761C35.5267 0.443253 35.3777 0.909604 35.3694 1.37486C35.3601 1.87916 35.5141 2.3851 35.8171 2.86025L35.6274 2.98124C35.3001 2.46815 35.1341 1.91985 35.144 1.37156C35.1527 0.906306 35.2875 0.442703 35.5575 0.00164809C35.6125 0.00164809 35.667 0 35.7225 0C35.7572 0 35.7918 0.00109761 35.827 0.00109761Z" fill="#FEFEFE"/>
<path d="M34.2387 0.0349121C33.9621 0.491916 33.8379 0.965412 33.8538 1.43067C33.8709 1.93442 34.0512 2.43157 34.3784 2.89077L34.1953 3.02111C33.8422 2.52616 33.647 1.98721 33.6289 1.43892C33.6129 0.974215 33.7235 0.504013 33.9698 0.0497583C34.0249 0.0464587 34.0792 0.0420584 34.1342 0.0387588C34.1689 0.037109 34.2035 0.036562 34.2387 0.0349121Z" fill="#FEFEFE"/>
<path d="M32.6544 0.151733C32.4019 0.622486 32.303 1.10203 32.3431 1.56564C32.3866 2.06773 32.5928 2.55499 32.9436 2.99604L32.7677 3.13628C32.3888 2.66003 32.166 2.13208 32.1188 1.58544C32.0786 1.12238 32.1644 0.647231 32.3866 0.180328C32.4416 0.174279 32.4954 0.167131 32.5504 0.161081C32.5851 0.157782 32.6197 0.155033 32.6544 0.151733Z" fill="#FEFEFE"/>
<path d="M31.0784 0.350403C30.8512 0.833803 30.7775 1.31776 30.8413 1.77861C30.9112 2.27795 31.1426 2.75366 31.5161 3.17602L31.3478 3.32505C30.9447 2.86914 30.6945 2.35385 30.6186 1.81051C30.5542 1.3502 30.6152 0.871201 30.8127 0.393297C30.8672 0.384498 30.9205 0.374048 30.975 0.365249C31.0096 0.359749 31.0443 0.355903 31.0784 0.350403Z" fill="#FEFEFE"/>
<path d="M29.5154 0.632324C29.3136 1.12672 29.2652 1.61397 29.3532 2.07098C29.4489 2.56593 29.7051 3.02898 30.1 3.43099L29.94 3.58827C29.5132 3.15492 29.2366 2.65282 29.1327 2.11443C29.0441 1.65797 29.0799 1.17621 29.252 0.688967C29.3059 0.677418 29.3587 0.664221 29.4126 0.652672C29.4466 0.645523 29.4808 0.639474 29.5154 0.632324Z" fill="#FEFEFE"/>
<path d="M27.9689 0.994904C27.7929 1.4992 27.7703 1.98811 27.882 2.44016C28.0041 2.92961 28.2835 3.37836 28.6992 3.75892L28.5474 3.92501C28.0987 3.51365 27.7962 3.0275 27.6637 2.49515C27.552 2.04365 27.5619 1.5608 27.7087 1.0653C27.7621 1.05045 27.8143 1.0345 27.8671 1.02075C27.9013 1.0114 27.9348 1.00371 27.9689 0.994904Z" fill="#FEFEFE"/>
<path d="M26.4434 1.43924C26.2943 1.95234 26.2971 2.44179 26.433 2.88724C26.5797 3.36955 26.8828 3.8029 27.3178 4.16146L27.1748 4.3347C26.7051 3.94809 26.3774 3.47788 26.2173 2.95324C26.0821 2.50833 26.0672 2.02603 26.1876 1.52283C26.2399 1.50579 26.291 1.48709 26.3433 1.47004C26.3769 1.45959 26.4099 1.44969 26.4434 1.43924Z" fill="#FEFEFE"/>
<path d="M24.9433 1.96155C24.8218 2.48179 24.8499 2.97014 25.0088 3.4079C25.1809 3.88195 25.5059 4.29881 25.9591 4.63428L25.8255 4.8152C25.336 4.45335 24.9846 4.00129 24.7971 3.48545C24.6386 3.04824 24.5985 2.56704 24.6926 2.05889C24.7437 2.03854 24.7943 2.01764 24.8454 1.99785C24.8779 1.9852 24.9109 1.9742 24.9433 1.96155Z" fill="#FEFEFE"/>
<path d="M23.4727 2.56177C23.3781 3.08751 23.432 3.57366 23.6135 4.00262C23.8104 4.46677 24.1568 4.86658 24.627 5.1773L24.5028 5.36483C23.9952 5.02936 23.6201 4.59601 23.4067 4.09116C23.2252 3.66275 23.1598 3.1843 23.2269 2.67176C23.2775 2.6492 23.3264 2.62501 23.377 2.60301C23.4089 2.58872 23.4408 2.57552 23.4727 2.56177Z" fill="#FEFEFE"/>
<path d="M22.0358 3.23846C21.9687 3.76806 22.0478 4.25146 22.2513 4.66997C22.4724 5.12312 22.8392 5.50423 23.3248 5.7902L23.211 5.98378C22.6864 5.67527 22.2893 5.26226 22.0495 4.76896C21.846 4.351 21.7559 3.8764 21.796 3.3611C21.8449 3.3358 21.8928 3.30941 21.9417 3.28466C21.9731 3.26871 22.0044 3.25386 22.0358 3.23846Z" fill="#FEFEFE"/>
<path d="M20.6354 3.98895C20.5963 4.52185 20.7008 4.99975 20.9263 5.40726C21.1705 5.84831 21.5566 6.20962 22.057 6.46975L21.953 6.66938C21.413 6.38836 20.9951 5.9968 20.7294 5.5167C20.5045 5.10974 20.3895 4.64119 20.4028 4.12424C20.4501 4.0962 20.4968 4.06759 20.5441 4.0401C20.5749 4.0225 20.6051 4.006 20.6354 3.98895Z" fill="#FEFEFE"/>
<path d="M19.2772 4.81195C19.2661 5.3465 19.3954 5.81835 19.6418 6.21376C19.9085 6.64107 20.3133 6.98148 20.8264 7.21521L20.7329 7.41977C20.1791 7.16791 19.7413 6.7989 19.4509 6.3331C19.2046 5.93879 19.0655 5.47628 19.0517 4.95934C19.0979 4.92909 19.1424 4.89774 19.1886 4.86805C19.2178 4.8488 19.2475 4.8312 19.2772 4.81195Z" fill="#FEFEFE"/>
<path d="M17.9632 5.7049C17.9802 6.23889 18.1336 6.7036 18.4004 7.08525C18.6897 7.49884 19.1115 7.81726 19.6361 8.02398L19.5536 8.23296C18.9872 8.01029 18.5307 7.66435 18.2161 7.21504C17.95 6.83393 17.7867 6.37912 17.746 5.86383C17.79 5.83138 17.8334 5.79784 17.8779 5.76539C17.906 5.74504 17.9346 5.72524 17.9632 5.7049Z" fill="#FEFEFE"/>
<path d="M16.6986 6.66486C16.7432 7.1972 16.9213 7.65312 17.2073 8.02048C17.5175 8.41805 17.9558 8.71397 18.4903 8.89266L18.4188 9.10608C17.842 8.91305 17.3673 8.59186 17.0302 8.15905C16.7443 7.79278 16.5573 7.3473 16.4896 6.83479C16.5319 6.80014 16.5737 6.76439 16.6161 6.72974C16.6436 6.70774 16.6711 6.68685 16.6986 6.66486Z" fill="#FEFEFE"/>
<path d="M15.4853 7.69061C15.5579 8.2202 15.7591 8.6662 16.0644 9.0176C16.3949 9.39872 16.848 9.67149 17.3909 9.82214L17.3309 10.0388C16.7446 9.87661 16.2541 9.58018 15.8944 9.16556C15.5898 8.81467 15.3797 8.37967 15.2856 7.87149C15.3263 7.83464 15.3653 7.79671 15.4066 7.75986C15.4325 7.73627 15.4588 7.71421 15.4853 7.69061Z" fill="#FEFEFE"/>
<path d="M14.3271 8.77814C14.4278 9.30277 14.6521 9.73777 14.9749 10.0727C15.3252 10.4356 15.7916 10.6848 16.3421 10.8063L16.2937 11.0263C15.6998 10.8949 15.1944 10.6248 14.8133 10.2294C14.491 9.89505 14.2583 9.47163 14.1374 8.96899C14.1764 8.92996 14.2138 8.88976 14.2523 8.85132C14.2771 8.82656 14.3024 8.80289 14.3271 8.77814Z" fill="#FEFEFE"/>
<path d="M13.2277 9.92474C13.3553 10.4433 13.6028 10.8662 13.9426 11.1836C14.3111 11.5279 14.7901 11.7522 15.3461 11.8446L15.3092 12.0668C14.7092 11.9667 14.1901 11.7231 13.7892 11.3486C13.4499 11.0312 13.1952 10.621 13.0484 10.1249C13.0853 10.0842 13.1204 10.0424 13.1573 10.0012C13.1804 9.97535 13.2046 9.95059 13.2277 9.92474Z" fill="#FEFEFE"/>
<path d="M12.19 11.1264C12.3445 11.6379 12.6134 12.047 12.9698 12.3467C13.3559 12.6712 13.8458 12.8697 14.4062 12.9335L14.3804 13.1568C13.776 13.0881 13.2453 12.8725 12.8257 12.5194C12.4699 12.2203 12.1944 11.8237 12.0217 11.3365C12.0558 11.2936 12.0888 11.2496 12.1235 11.2073C12.1454 11.1797 12.168 11.1539 12.19 11.1264Z" fill="#FEFEFE"/>
<path d="M11.2166 12.3831C11.3981 12.8857 11.6879 13.28 12.0592 13.5605C12.4617 13.8647 12.9616 14.0373 13.5242 14.0714L13.5104 14.2958C12.9033 14.259 12.3621 14.0714 11.9244 13.7404C11.5532 13.4605 11.2573 13.0788 11.0593 12.6014C11.0912 12.5569 11.122 12.5112 11.1545 12.4667C11.1748 12.4386 11.1963 12.4111 11.2166 12.3831Z" fill="#FEFEFE"/>
<path d="M10.3102 13.6868C10.5175 14.179 10.8277 14.5579 11.2132 14.8185C11.6312 15.1007 12.1393 15.247 12.703 15.2519L12.7008 15.4769C12.0926 15.4719 11.5421 15.3124 11.0878 15.0055C10.7029 14.7448 10.3872 14.3797 10.1645 13.9128C10.1942 13.8666 10.2223 13.8199 10.2525 13.7736C10.2717 13.7445 10.2915 13.7159 10.3102 13.6868Z" fill="#FEFEFE"/>
<path d="M9.47392 15.0376C9.70657 15.5182 10.036 15.8801 10.4346 16.1204C10.8664 16.3805 11.3817 16.4998 11.9448 16.4752L11.9547 16.7C11.347 16.727 10.7888 16.5967 10.3192 16.3134C9.92101 16.0737 9.58664 15.725 9.33972 15.2707C9.36725 15.2235 9.3931 15.175 9.42055 15.1272C9.43766 15.097 9.45637 15.0679 9.47392 15.0376Z" fill="#FEFEFE"/>
<path d="M8.70841 16.4286C8.96632 16.8965 9.31387 17.2408 9.7247 17.4597C10.1702 17.6967 10.6904 17.7891 11.2519 17.7352L11.2733 17.9591C10.6679 18.0173 10.1036 17.9167 9.6197 17.6588C9.20938 17.4399 8.85747 17.1094 8.58688 16.6688C8.61164 16.6194 8.63531 16.5699 8.65999 16.521C8.67594 16.4902 8.69247 16.4594 8.70841 16.4286Z" fill="#FEFEFE"/>
<path d="M8.01767 17.8597C8.29925 18.3134 8.66442 18.639 9.08624 18.8364C9.54323 19.0498 10.0679 19.1147 10.6256 19.0311L10.6585 19.2538C10.0569 19.344 9.48876 19.2725 8.99165 19.0405C8.57041 18.8436 8.2019 18.5318 7.90881 18.1056C7.9308 18.0555 7.95112 18.0049 7.97369 17.9543C7.98796 17.9224 8.00282 17.8911 8.01767 17.8597Z" fill="#FEFEFE"/>
<path d="M7.40217 19.3234C7.70683 19.7622 8.08904 20.068 8.52076 20.2428C8.98766 20.4321 9.51564 20.4694 10.0677 20.3572L10.1123 20.5778C9.51673 20.6993 8.94477 20.6581 8.43659 20.4518C8.00545 20.2775 7.62105 19.9849 7.30591 19.5752C7.32571 19.5235 7.34334 19.4718 7.36314 19.4206C7.37581 19.3877 7.3895 19.3563 7.40217 19.3234Z" fill="#FEFEFE"/>
<path d="M6.86363 20.8177C7.19137 21.2395 7.58901 21.5255 8.02896 21.6773C8.50576 21.8417 9.03426 21.8516 9.58037 21.7103L9.63644 21.928C9.04744 22.0809 8.47438 22.0694 7.95637 21.89C7.51693 21.7383 7.11717 21.4672 6.78171 21.074C6.79816 21.0217 6.8136 20.9689 6.83064 20.9166C6.84105 20.8831 6.85314 20.8507 6.86363 20.8177Z" fill="#FEFEFE"/>
<path d="M6.40504 22.3388C6.75427 22.743 7.16611 23.0075 7.61378 23.1362C8.0983 23.2759 8.62679 23.2577 9.1641 23.0884L9.23174 23.3029C8.65155 23.486 8.07907 23.5047 7.55167 23.3529C7.10509 23.2242 6.69208 22.974 6.3363 22.5989C6.34999 22.5461 6.36266 22.4928 6.37701 22.4394C6.38575 22.4059 6.39565 22.3724 6.40504 22.3388Z" fill="#FEFEFE"/>
<path d="M6.02604 23.8816C6.39617 24.2671 6.82126 24.5096 7.27498 24.6146C7.76604 24.7285 8.29294 24.6834 8.82085 24.4854L8.89949 24.696C8.32978 24.9094 7.75891 24.9584 7.22437 24.8341C6.77175 24.729 6.34614 24.5008 5.97107 24.145C5.98206 24.0911 5.99197 24.0372 6.00296 23.9838C6.01068 23.9492 6.01891 23.9157 6.02604 23.8816Z" fill="#FEFEFE"/>
<path d="M5.72865 25.4416C6.11858 25.8073 6.55576 26.0273 7.01385 26.1087C7.51045 26.1967 8.03458 26.1235 8.55098 25.8986L8.64113 26.1049C8.08293 26.3479 7.5154 26.426 6.9754 26.3303C6.51783 26.2495 6.08064 26.0433 5.68744 25.7078C5.69567 25.6533 5.7028 25.5995 5.71103 25.545C5.71657 25.5103 5.72312 25.4762 5.72865 25.4416Z" fill="#FEFEFE"/>
<path d="M5.51349 27.0151C5.92154 27.36 6.36972 27.5569 6.83174 27.614C7.33213 27.6756 7.8513 27.5755 8.35562 27.3237L8.45625 27.525C7.91181 27.7967 7.34924 27.9049 6.80472 27.8373C6.34336 27.7801 5.89628 27.5976 5.48596 27.283C5.4915 27.2286 5.49535 27.1735 5.50082 27.1191C5.50467 27.0845 5.50963 27.0498 5.51349 27.0151Z" fill="#FEFEFE"/>
<path d="M5.38073 28.5982C5.80641 28.921 6.2645 29.0942 6.72862 29.1273C7.23185 29.163 7.74498 29.0354 8.23554 28.7577L8.34658 28.9535C7.817 29.2532 7.26098 29.3907 6.71326 29.3516C6.24964 29.3186 5.79374 29.1603 5.36755 28.8671C5.37032 28.8121 5.37141 28.7577 5.37418 28.7027C5.37578 28.6675 5.37906 28.6334 5.38073 28.5982Z" fill="#FEFEFE"/>
<path d="M5.33093 30.1866C5.77256 30.4868 6.23945 30.6358 6.70467 30.6441C7.20899 30.6534 7.7144 30.4994 8.1901 30.1965L8.31105 30.3861C7.79799 30.7134 7.24969 30.8795 6.70081 30.8696C6.2361 30.8608 5.77255 30.726 5.33151 30.456C5.33151 30.401 5.32925 30.346 5.32925 30.291C5.32925 30.2564 5.33093 30.2217 5.33093 30.1866Z" fill="#FEFEFE"/>
<path d="M5.36456 31.7741C5.82155 32.0507 6.29507 32.175 6.76029 32.1591C7.2641 32.142 7.76121 31.9617 8.21988 31.6339L8.35073 31.8176C7.8558 32.1706 7.31689 32.3653 6.76859 32.384C6.30388 32.3999 5.83364 32.2894 5.37942 32.0431C5.37614 31.988 5.37119 31.9336 5.36842 31.8786C5.36675 31.8434 5.36624 31.8093 5.36456 31.7741Z" fill="#FEFEFE"/>
<path d="M5.48065 33.3584C5.95199 33.6108 6.43097 33.7098 6.89509 33.6697C7.39723 33.6262 7.88444 33.42 8.32555 33.0691L8.46521 33.2451C7.98951 33.624 7.4616 33.8468 6.9149 33.894C6.45186 33.9341 5.97674 33.8484 5.50978 33.6256C5.50373 33.5712 5.49609 33.5173 5.49055 33.4623C5.4867 33.4276 5.48451 33.393 5.48065 33.3584Z" fill="#FEFEFE"/>
<path d="M5.68039 34.9341C6.16381 35.1618 6.64774 35.2355 7.10859 35.1711C7.60796 35.1013 8.08367 34.8703 8.50549 34.4964L8.65447 34.6652C8.19915 35.0683 7.68384 35.3185 7.14049 35.3944C6.68022 35.4582 6.20066 35.3977 5.72328 35.2003C5.71447 35.1459 5.70405 35.0919 5.69524 35.0375C5.68978 35.0035 5.68534 34.9688 5.68039 34.9341Z" fill="#FEFEFE"/>
<path d="M5.96194 36.498C6.45636 36.6998 6.94364 36.7482 7.40063 36.6597C7.89556 36.564 8.35859 36.3082 8.7601 35.9128L8.91789 36.0734C8.48398 36.5002 7.98243 36.7768 7.44403 36.8808C6.98762 36.9693 6.50588 36.9336 6.0186 36.7614C6.00651 36.7075 5.99384 36.6542 5.98233 36.6003C5.9752 36.5662 5.96908 36.5321 5.96194 36.498Z" fill="#FEFEFE"/>
<path d="M6.32422 38.0442C6.82905 38.2196 7.31793 38.2427 7.76997 38.1305C8.25885 38.0089 8.7082 37.7296 9.08873 37.3132L9.25431 37.4656C8.84349 37.9143 8.35737 38.2168 7.82444 38.3488C7.37349 38.461 6.89065 38.4505 6.39456 38.3043C6.38029 38.251 6.36434 38.1987 6.35007 38.1453C6.34126 38.1118 6.33354 38.0782 6.32422 38.0442Z" fill="#FEFEFE"/>
<path d="M6.76788 39.5692C7.28043 39.7182 7.77048 39.7155 8.21538 39.5797C8.69764 39.4328 9.13155 39.1298 9.48958 38.6948L9.66339 38.8378C9.27674 39.3074 8.80657 39.6352 8.28194 39.7947C7.83703 39.9305 7.3547 39.9454 6.85148 39.8249C6.83444 39.7727 6.8158 39.721 6.79868 39.6687C6.78769 39.6357 6.77837 39.6022 6.76788 39.5692Z" fill="#FEFEFE"/>
<path d="M7.29056 41.0687C7.81024 41.1908 8.2992 41.1628 8.73689 41.0038C9.21099 40.8317 9.62786 40.5067 9.96332 40.0535L10.1437 40.1872C9.78238 40.6761 9.32976 41.0281 8.81444 41.215C8.37726 41.3739 7.89609 41.4141 7.38733 41.3201C7.3676 41.2689 7.3467 41.2183 7.32689 41.1671C7.31422 41.1342 7.30265 41.1018 7.29056 41.0687Z" fill="#FEFEFE"/>
<path d="M7.89069 42.5397C8.41641 42.6338 8.90311 42.5804 9.33207 42.399C9.7962 42.2021 10.196 41.8556 10.5067 41.3854L10.6943 41.5097C10.3588 42.0168 9.92544 42.3918 9.42003 42.6057C8.99217 42.7872 8.51377 42.8527 8.00122 42.785C7.97865 42.7349 7.95447 42.686 7.93248 42.6354C7.91814 42.6035 7.90496 42.5716 7.89069 42.5397Z" fill="#FEFEFE"/>
<path d="M8.56708 43.9774C9.09717 44.0439 9.5806 43.9647 9.99907 43.7613C10.4523 43.5407 10.8334 43.1739 11.1193 42.6877L11.313 42.8021C11.0044 43.3263 10.5914 43.7233 10.0981 43.9636C9.68014 44.1671 9.20552 44.2573 8.69021 44.2166C8.66494 44.1682 8.63851 44.1203 8.61382 44.0709C8.59781 44.0401 8.58302 44.0087 8.56708 43.9774Z" fill="#FEFEFE"/>
<path d="M9.31824 45.3778C9.85059 45.4168 10.329 45.3123 10.7365 45.0874C11.1776 44.8432 11.5389 44.4566 11.799 43.9567L11.9986 44.0606C11.7177 44.6001 11.3261 45.0186 10.846 45.2843C10.439 45.5092 9.97045 45.6241 9.45353 45.6109C9.42549 45.5631 9.39688 45.5168 9.36935 45.469C9.35173 45.4388 9.33528 45.4086 9.31824 45.3778Z" fill="#FEFEFE"/>
<path d="M10.141 46.7357C10.6749 46.7467 11.1474 46.6175 11.5423 46.3711C11.97 46.1044 12.3105 45.6996 12.5442 45.1866L12.7488 45.2801C12.4969 45.8332 12.1273 46.2716 11.6621 46.562C11.2678 46.8078 10.8053 46.9475 10.2884 46.9612C10.2581 46.915 10.2268 46.8699 10.1971 46.8237C10.1778 46.7945 10.1602 46.7649 10.141 46.7357Z" fill="#FEFEFE"/>
<path d="M11.0341 48.0503C11.5682 48.0333 12.0329 47.8793 12.4146 47.6126C12.8275 47.3238 13.1465 46.9021 13.3527 46.3774L13.5623 46.4599C13.3396 47.0258 12.9936 47.4828 12.5438 47.7968C12.1626 48.063 11.7084 48.2269 11.1931 48.2676C11.1607 48.223 11.1271 48.1801 11.0947 48.1356C11.0743 48.107 11.0545 48.0784 11.0341 48.0503Z" fill="#FEFEFE"/>
<path d="M11.9948 49.3143C12.5272 49.2692 12.9831 49.0916 13.3504 48.8051C13.7475 48.4955 14.0439 48.0572 14.2227 47.5226L14.436 47.5941C14.243 48.171 13.9219 48.6451 13.4891 48.9827C13.1222 49.2681 12.6773 49.4551 12.1648 49.5228C12.1301 49.4804 12.0938 49.4392 12.0592 49.3963C12.0372 49.3694 12.0163 49.3418 11.9948 49.3143Z" fill="#FEFEFE"/>
<path d="M13.0199 50.5284C13.549 50.4558 13.9955 50.2539 14.3469 49.9493C14.728 49.6187 15.0008 49.1655 15.1509 48.6222L15.3681 48.6822C15.2054 49.2684 14.9095 49.759 14.4948 50.1186C14.144 50.4233 13.709 50.6334 13.2008 50.7279C13.164 50.6872 13.1261 50.6477 13.0892 50.607C13.0656 50.5806 13.0436 50.5542 13.0199 50.5284Z" fill="#FEFEFE"/>
<path d="M14.1078 51.6859C14.6325 51.5857 15.0675 51.3608 15.4023 51.038C15.7653 50.6882 16.0144 50.2213 16.136 49.6708L16.356 49.7198C16.2246 50.3137 15.954 50.8191 15.5591 51.1997C15.2242 51.5225 14.8013 51.7546 14.2987 51.8756C14.2596 51.837 14.2194 51.7997 14.1804 51.7607C14.1557 51.7359 14.132 51.7106 14.1078 51.6859Z" fill="#FEFEFE"/>
<path d="M15.2544 52.7842C15.773 52.6566 16.1954 52.4097 16.5132 52.0693C16.8575 51.7008 17.0818 51.2218 17.1743 50.6658L17.3964 50.7032C17.2964 51.3032 17.0527 51.8218 16.6782 52.2227C16.3609 52.5625 15.9507 52.8167 15.4546 52.9635C15.4139 52.9272 15.3721 52.8919 15.3309 52.8551C15.305 52.8315 15.2802 52.8078 15.2544 52.7842Z" fill="#FEFEFE"/>
<path d="M16.4564 53.8227C16.9679 53.6682 17.377 53.3992 17.6767 53.0429C18.0012 52.6568 18.1997 52.1668 18.2635 51.6069L18.4868 51.6323C18.4181 52.2366 18.2025 52.7673 17.8494 53.1875C17.5503 53.5433 17.1537 53.8189 16.6659 53.9915C16.6236 53.9569 16.5796 53.9238 16.5367 53.8893C16.5097 53.8673 16.4834 53.8447 16.4564 53.8227Z" fill="#FEFEFE"/>
<path d="M17.7121 54.7953C18.2142 54.6144 18.6091 54.324 18.8896 53.9528C19.1931 53.5502 19.3658 53.0503 19.4004 52.4877L19.6248 52.5015C19.5879 53.1086 19.3999 53.6503 19.0694 54.088C18.7894 54.4587 18.4078 54.7546 17.9299 54.9526C17.8854 54.9207 17.8402 54.8899 17.7957 54.8574C17.7677 54.8371 17.7402 54.8156 17.7121 54.7953Z" fill="#FEFEFE"/>
<path d="M19.0165 55.7023C19.5086 55.495 19.8876 55.1848 20.1483 54.7993C20.4304 54.3814 20.5767 53.8732 20.5816 53.3095L20.8066 53.3117C20.8016 53.9199 20.6421 54.4704 20.3352 54.9247C20.0746 55.3102 19.7089 55.6253 19.2425 55.848C19.1963 55.8184 19.1496 55.7903 19.1033 55.76C19.0736 55.7413 19.0456 55.7215 19.0165 55.7023Z" fill="#FEFEFE"/>
<path d="M20.3662 56.5387C20.8473 56.306 21.2092 55.976 21.4495 55.5773C21.7097 55.1456 21.829 54.6303 21.8043 54.0672L22.0292 54.0573C22.0556 54.665 21.9258 55.2232 21.6426 55.6933C21.4028 56.0915 21.0541 56.4254 20.5999 56.6723C20.552 56.6453 20.5042 56.6195 20.4563 56.592C20.4261 56.5744 20.3964 56.5562 20.3662 56.5387Z" fill="#FEFEFE"/>
<path d="M21.7585 57.3043C22.2265 57.047 22.5707 56.6988 22.7896 56.288C23.0266 55.8431 23.119 55.3223 23.0652 54.7614L23.289 54.7394C23.3472 55.3449 23.2466 55.9091 22.9887 56.3931C22.7698 56.8033 22.4393 57.1553 21.9983 57.4258C21.9493 57.4012 21.8998 57.378 21.8509 57.3527C21.8195 57.3368 21.7893 57.3203 21.7585 57.3043Z" fill="#FEFEFE"/>
<path d="M23.1884 57.9957C23.6427 57.7141 23.9682 57.3484 24.1651 56.9266C24.3785 56.4696 24.4439 55.9449 24.3603 55.3873L24.5825 55.3543C24.6727 55.9559 24.6017 56.5246 24.3696 57.0212C24.1727 57.4424 23.861 57.8115 23.4348 58.104C23.3847 58.0821 23.3336 58.0617 23.2835 58.0392C23.2516 58.0248 23.2202 58.01 23.1884 57.9957Z" fill="#FEFEFE"/>
<path d="M24.6528 58.6113C25.0917 58.3061 25.3974 57.9239 25.5724 57.4927C25.7615 57.0253 25.7989 56.4979 25.6867 55.9452L25.9067 55.9007C26.0282 56.4968 25.987 57.0682 25.7813 57.5763C25.6064 58.0075 25.3144 58.3919 24.9041 58.707C24.853 58.6872 24.8013 58.6696 24.7502 58.6498C24.7171 58.6372 24.6853 58.624 24.6528 58.6113Z" fill="#FEFEFE"/>
<path d="M26.1476 59.1488C26.5694 58.8211 26.8553 58.4235 27.0071 57.9835C27.1716 57.5067 27.1815 56.9782 27.0402 56.4327L27.2579 56.376C27.4103 56.965 27.3993 57.5381 27.2199 58.0567C27.0682 58.4961 26.7965 58.8953 26.4038 59.2313C26.3516 59.2143 26.2988 59.1995 26.2465 59.1824C26.213 59.1714 26.1806 59.1598 26.1476 59.1488Z" fill="#FEFEFE"/>
<path d="M27.668 59.6068C28.0722 59.2576 28.3368 58.8457 28.4654 58.3986C28.6052 57.9141 28.587 57.385 28.4171 56.8477L28.6321 56.7801C28.8152 57.3603 28.8339 57.9328 28.6821 58.4602C28.5535 58.9067 28.3032 59.3198 27.9282 59.6761C27.8748 59.6618 27.822 59.6497 27.7687 59.6354C27.7346 59.6261 27.7016 59.6162 27.668 59.6068Z" fill="#FEFEFE"/>
<path d="M29.2108 59.9865C29.5963 59.6164 29.8388 59.1913 29.9438 58.7376C30.0577 58.2465 30.012 57.7197 29.8146 57.1917L30.0252 57.1131C30.2387 57.6828 30.2876 58.2537 30.1633 58.7882C30.0582 59.2408 29.83 59.6665 29.4742 60.0415C29.4203 60.0305 29.3664 60.0206 29.3125 60.0096C29.2784 60.002 29.2449 59.9937 29.2108 59.9865Z" fill="#FEFEFE"/>
<path d="M30.7709 60.2834C31.1366 59.8935 31.3566 59.4562 31.438 58.9981C31.526 58.5015 31.4529 57.9775 31.2279 57.4611L31.4341 57.3708C31.6766 57.9291 31.7553 58.4966 31.6596 59.0367C31.5782 59.4942 31.3725 59.9314 31.0371 60.3246C30.9826 60.3164 30.9281 60.3092 30.8743 60.3009C30.8396 60.2955 30.8055 60.2889 30.7709 60.2834Z" fill="#FEFEFE"/>
<path d="M32.3448 60.499C32.6897 60.091 32.886 59.6428 32.9432 59.1808C33.0054 58.6804 32.9052 58.1612 32.6534 57.6569L32.8546 57.5562C33.1263 58.1007 33.2341 58.6633 33.167 59.2078C33.1098 59.6691 32.9272 60.1163 32.6127 60.5265C32.5577 60.521 32.5032 60.5171 32.4488 60.5117C32.4136 60.5078 32.3795 60.5029 32.3448 60.499Z" fill="#FEFEFE"/>
<path d="M33.9278 60.632C34.2506 60.2064 34.4238 59.7483 34.4568 59.2842C34.492 58.7809 34.365 58.2679 34.0872 57.7773L34.283 57.6662C34.5827 58.1959 34.7202 58.7518 34.6812 59.299C34.6482 59.7631 34.4892 60.219 34.1967 60.6452C34.1417 60.6425 34.0872 60.6414 34.0323 60.6387C33.9971 60.637 33.9629 60.6337 33.9278 60.632Z" fill="#FEFEFE"/>
<path d="M35.5154 60.6813C35.8157 60.2391 35.9642 59.7728 35.973 59.3075C35.9823 58.8032 35.8284 58.2973 35.5253 57.8222L35.7151 57.7011C36.0418 58.2143 36.2084 58.7626 36.1979 59.3108C36.1897 59.7761 36.0549 60.2397 35.7849 60.6808C35.73 60.6808 35.675 60.6824 35.6199 60.6824C35.5853 60.6824 35.5507 60.6813 35.5154 60.6813Z" fill="#FEFEFE"/>
<path d="M37.1038 60.6484C37.3804 60.1914 37.5046 59.7179 37.4887 59.2527C37.4716 58.7489 37.2913 58.2518 36.9635 57.7925L37.1467 57.6623C37.5003 58.1572 37.695 58.6961 37.7136 59.2444C37.7296 59.7091 37.619 60.1794 37.3727 60.6336C37.3176 60.6369 37.2632 60.6413 37.2083 60.6441C37.173 60.6462 37.1384 60.6468 37.1038 60.6484Z" fill="#FEFEFE"/>
<path d="M38.6874 60.5313C38.9398 60.0606 39.0393 59.581 38.9992 59.1174C38.9558 58.6147 38.7495 58.128 38.3981 57.687L38.5746 57.5468C38.953 58.023 39.1757 58.551 39.2231 59.0976C39.2632 59.5606 39.1779 60.0358 38.9552 60.5027C38.9008 60.5087 38.8463 60.5159 38.7918 60.5219C38.7567 60.5253 38.7226 60.528 38.6874 60.5313Z" fill="#FEFEFE"/>
<path d="M40.2634 60.3321C40.4906 59.8487 40.5648 59.3648 40.5005 58.9033C40.4306 58.404 40.1991 57.9288 39.8257 57.5064L39.994 57.3575C40.3976 57.8128 40.6473 58.3287 40.7232 58.8719C40.7875 59.3323 40.7271 59.8113 40.5291 60.2891C40.4752 60.298 40.4212 60.3084 40.3668 60.3167C40.3322 60.3222 40.2981 60.3266 40.2634 60.3321Z" fill="#FEFEFE"/>
<path d="M41.8269 60.0508C42.0282 59.5564 42.0772 59.0691 41.9886 58.6121C41.8929 58.1166 41.6366 57.6541 41.2418 57.2521L41.4024 57.0942C41.8286 57.5281 42.1052 58.0297 42.2097 58.5687C42.2977 59.0251 42.2625 59.5063 42.0898 59.9941C42.0359 60.0056 41.9832 60.0189 41.9292 60.0304C41.8951 60.0376 41.861 60.0436 41.8269 60.0508Z" fill="#FEFEFE"/>
<path d="M43.3734 59.6875C43.5488 59.1832 43.572 58.6937 43.4598 58.2422C43.3377 57.7528 43.0583 57.304 42.6426 56.9235L42.7943 56.7574C43.2431 57.1682 43.5456 57.6549 43.6781 58.1872C43.7897 58.6387 43.7798 59.1211 43.633 59.6171C43.5802 59.6314 43.5274 59.6474 43.4746 59.6616C43.4405 59.671 43.407 59.6787 43.3734 59.6875Z" fill="#FEFEFE"/>
<path d="M44.8984 59.2438C45.0475 58.7307 45.0447 58.2412 44.9089 57.7958C44.7621 57.3135 44.4591 56.8801 44.0241 56.5215L44.1671 56.3478C44.6367 56.7349 44.9645 57.2046 45.1245 57.7297C45.2598 58.1741 45.2746 58.657 45.1542 59.1596C45.102 59.1772 45.0508 59.1954 44.9981 59.2124C44.965 59.2234 44.932 59.2328 44.8984 59.2438Z" fill="#FEFEFE"/>
<path d="M46.3986 58.7221C46.5201 58.2018 46.4921 57.7129 46.3331 57.2752C46.161 56.8016 45.836 56.3843 45.3828 56.0493L45.5165 55.8684C46.0059 56.2303 46.3573 56.6823 46.5443 57.1982C46.7033 57.6348 46.7434 58.116 46.6494 58.6247C46.5982 58.6445 46.5477 58.6659 46.4965 58.6857C46.4635 58.6984 46.431 58.7094 46.3986 58.7221Z" fill="#FEFEFE"/>
<path d="M47.8694 58.1217C47.9635 57.5959 47.9101 57.1092 47.7287 56.6808C47.5318 56.2161 47.1853 55.8168 46.7151 55.5061L46.8393 55.3181C47.3464 55.6541 47.7214 56.0868 47.9354 56.5923C48.1169 57.0207 48.1823 57.4986 48.1146 58.0116C48.0646 58.0342 48.0157 58.0579 47.9651 58.0804C47.9332 58.0947 47.9013 58.1074 47.8694 58.1217Z" fill="#FEFEFE"/>
<path d="M49.3063 57.4448C49.3729 56.9147 49.2937 56.4318 49.0902 56.0133C48.8697 55.5596 48.5029 55.179 48.0168 54.8931L48.1312 54.699C48.6552 55.0075 49.0523 55.4205 49.2927 55.9143C49.4961 56.3323 49.5863 56.8063 49.5456 57.3222C49.4972 57.3469 49.4488 57.3733 49.3999 57.3986C49.3691 57.4146 49.3377 57.4289 49.3063 57.4448Z" fill="#FEFEFE"/>
<path d="M50.7059 56.6948C50.7449 56.1619 50.6405 55.6834 50.4155 55.2765C50.1714 54.8348 49.7847 54.4741 49.2849 54.2139L49.3888 54.0143C49.9282 54.2948 50.3468 54.6864 50.6118 55.1664C50.8368 55.5734 50.9522 56.0425 50.9386 56.5595C50.8912 56.587 50.8451 56.6161 50.7972 56.6436C50.7669 56.6612 50.7361 56.6771 50.7059 56.6948Z" fill="#FEFEFE"/>
<path d="M52.065 55.8715C52.076 55.3375 51.9467 54.8657 51.7003 54.4702C51.4336 54.0424 51.0289 53.7019 50.5157 53.4688L50.6087 53.2637C51.1625 53.5161 51.6008 53.8851 51.8912 54.3509C52.137 54.7452 52.2761 55.2077 52.2899 55.7247C52.2442 55.7544 52.1992 55.7857 52.1529 55.816C52.1238 55.8346 52.0941 55.8528 52.065 55.8715Z" fill="#FEFEFE"/>
<path d="M53.378 54.9782C53.3609 54.4443 53.2075 53.979 52.9407 53.5978C52.652 53.1843 52.2297 52.8659 51.705 52.6591L51.7875 52.4501C52.354 52.6729 52.8104 53.0187 53.125 53.4681C53.3912 53.8492 53.5545 54.3034 53.5952 54.8193C53.5512 54.8517 53.5077 54.8853 53.4632 54.9177C53.4351 54.9381 53.4065 54.9573 53.378 54.9782Z" fill="#FEFEFE"/>
<path d="M54.6436 54.0172C54.5984 53.4848 54.4202 53.0289 54.1343 52.6616C53.8241 52.264 53.3863 51.9682 52.8513 51.7894L52.9228 51.576C53.4996 51.7685 53.9742 52.0902 54.3114 52.523C54.5973 52.8893 54.7843 53.3348 54.852 53.8473C54.8096 53.8819 54.7678 53.9176 54.7255 53.9523C54.698 53.9743 54.6705 53.9952 54.6436 54.0172Z" fill="#FEFEFE"/>
<path d="M55.8561 52.992C55.7835 52.463 55.5823 52.0169 55.277 51.665C54.9465 51.2844 54.4934 51.0116 53.9505 50.861L54.0105 50.6443C54.5967 50.8065 55.0873 51.103 55.447 51.5171C55.751 51.8685 55.9611 52.303 56.0557 52.8116C56.015 52.8485 55.9755 52.8864 55.9347 52.9233C55.9089 52.9469 55.8825 52.9689 55.8561 52.992Z" fill="#FEFEFE"/>
<path d="M57.0136 51.9042C56.9135 51.3796 56.6891 50.9446 56.3657 50.6091C56.016 50.2461 55.549 49.9975 54.9991 49.8755L55.0476 49.656C55.6415 49.7875 56.1469 50.0575 56.5274 50.4529C56.8503 50.7873 57.0829 51.2107 57.2039 51.7134C57.1648 51.7525 57.1274 51.7926 57.0884 51.8311C57.0642 51.8559 57.0389 51.8795 57.0136 51.9042Z" fill="#FEFEFE"/>
<path d="M58.1131 50.7576C57.9855 50.239 57.7386 49.8161 57.3987 49.4983C57.0302 49.1545 56.5507 48.9302 55.9947 48.8372L56.0321 48.6156C56.6321 48.7156 57.1507 48.9588 57.5516 49.3338C57.8914 49.6511 58.1455 50.0614 58.2929 50.5569C58.256 50.5981 58.2208 50.6399 58.184 50.6806C58.1609 50.707 58.1367 50.7318 58.1131 50.7576Z" fill="#FEFEFE"/>
<path d="M59.1512 49.5551C58.9961 49.0443 58.7275 48.6351 58.3712 48.3354C57.9857 48.0109 57.4951 47.8124 56.9352 47.7486L56.9606 47.5253C57.5649 47.5941 58.0962 47.8096 58.5158 48.1627C58.8716 48.4619 59.1469 48.8584 59.3202 49.3456C59.2859 49.3885 59.2524 49.4325 59.2182 49.4748C59.1964 49.5023 59.1731 49.5282 59.1512 49.5551Z" fill="#FEFEFE"/>
<path d="M60.124 48.3009C59.9434 47.7982 59.6536 47.4039 59.2816 47.1234C58.8796 46.8193 58.38 46.6466 57.8174 46.6126L57.8311 46.3882C58.4382 46.425 58.9794 46.6126 59.417 46.9431C59.7884 47.2236 60.084 47.6052 60.282 48.0826C60.25 48.1271 60.2194 48.1727 60.1874 48.2173C60.1663 48.2453 60.1451 48.2728 60.124 48.3009Z" fill="#FEFEFE"/>
<path d="M61.0306 46.9967C60.8238 46.5044 60.5136 46.1256 60.1277 45.8649C59.7105 45.5827 59.2022 45.4365 58.6384 45.4315L58.6401 45.2066C59.2481 45.2115 59.7986 45.3711 60.2537 45.6779C60.6389 45.9386 60.9541 46.3038 61.177 46.7706C61.1471 46.8168 61.1187 46.8636 61.0889 46.9098C61.0699 46.9389 61.0503 46.9675 61.0306 46.9967Z" fill="#FEFEFE"/>
<path d="M61.868 45.6453C61.635 45.1647 61.3058 44.8029 60.9068 44.5625C60.475 44.3024 59.9595 44.1831 59.3966 44.2078L59.3871 43.9829C59.9944 43.956 60.5522 44.0863 61.0226 44.3695C61.4209 44.6093 61.7551 44.958 62.002 45.4122C61.9743 45.46 61.9488 45.5079 61.9211 45.5557C61.9037 45.586 61.8854 45.6151 61.868 45.6453Z" fill="#FEFEFE"/>
<path d="M62.6326 44.2544C62.3755 43.7865 62.0275 43.4422 61.6161 43.2233C61.1711 42.9863 60.6505 42.8939 60.0898 42.9478L60.068 42.724C60.6738 42.6657 61.2374 42.7663 61.7216 43.0242C62.1323 43.2431 62.484 43.5736 62.7542 44.0142C62.7294 44.0637 62.7061 44.1131 62.6813 44.1621C62.6653 44.1934 62.6486 44.2236 62.6326 44.2544Z" fill="#FEFEFE"/>
<path d="M63.3236 42.8244C63.0425 42.3701 62.677 42.0445 62.2546 41.8476C61.7981 41.6337 61.2731 41.5688 60.716 41.6524L60.6826 41.4297C61.284 41.34 61.8527 41.411 62.35 41.6431C62.7709 41.84 63.1394 42.1518 63.4328 42.578C63.411 42.628 63.3898 42.6792 63.3673 42.7292C63.3534 42.7611 63.3381 42.7925 63.3236 42.8244Z" fill="#FEFEFE"/>
<path d="M63.9396 41.3594C63.6338 40.9206 63.2522 40.6148 62.8204 40.4399C62.3529 40.2508 61.8258 40.2133 61.2738 40.3255L61.2287 40.105C61.825 39.984 62.3959 40.0252 62.9049 40.231C63.3352 40.4058 63.7197 40.6978 64.035 41.1075C64.016 41.1592 63.9978 41.2109 63.9775 41.2621C63.9651 41.2951 63.952 41.327 63.9396 41.3594Z" fill="#FEFEFE"/>
<path d="M64.477 39.8656C64.15 39.4438 63.7517 39.1578 63.3119 39.0061C62.835 38.8416 62.3063 38.8317 61.7609 38.9731L61.7049 38.7553C62.2932 38.603 62.8663 38.614 63.3847 38.7932C63.8238 38.945 64.2236 39.2161 64.5592 39.6093C64.5432 39.6616 64.5272 39.7144 64.5104 39.7666C64.4995 39.8002 64.4879 39.8326 64.477 39.8656Z" fill="#FEFEFE"/>
<path d="M64.9364 38.3445C64.5869 37.9403 64.1748 37.6758 63.7277 37.5471C63.2427 37.4075 62.7148 37.4256 62.1767 37.5956L62.109 37.3805C62.6893 37.1974 63.2617 37.1787 63.7889 37.3304C64.236 37.4592 64.6488 37.7094 65.0049 38.0844C64.991 38.1372 64.9787 38.1906 64.9641 38.2439C64.9554 38.2775 64.9452 38.311 64.9364 38.3445Z" fill="#FEFEFE"/>
<path d="M65.3143 36.8011C64.9452 36.4156 64.5192 36.1731 64.0663 36.068C63.5748 35.9542 63.0483 35.9998 62.5204 36.1973L62.441 35.9866C63.0105 35.7732 63.5813 35.7243 64.1165 35.8486C64.5694 35.9536 64.9947 36.1818 65.3697 36.5377C65.3588 36.5915 65.3493 36.6454 65.3376 36.6993C65.3304 36.7335 65.3224 36.767 65.3143 36.8011Z" fill="#FEFEFE"/>
<path d="M65.6122 35.2421C65.2226 34.8764 64.785 34.6564 64.327 34.575C63.8304 34.487 63.3068 34.5601 62.7898 34.7851L62.7003 34.5789C63.258 34.3364 63.8253 34.2577 64.3656 34.3534C64.8236 34.4348 65.2605 34.6405 65.6537 34.9759C65.6449 35.0304 65.6384 35.0849 65.6296 35.1387C65.6245 35.1734 65.618 35.2075 65.6122 35.2421Z" fill="#FEFEFE"/>
<path d="M65.8277 33.6677C65.4192 33.3229 64.9707 33.1266 64.509 33.0694C64.008 33.0073 63.4889 33.1073 62.985 33.3592L62.8845 33.1579C63.4284 32.8862 63.9913 32.7785 64.536 32.8455C64.9969 32.9028 65.444 33.0853 65.8546 33.3999C65.8488 33.4549 65.8452 33.5093 65.8393 33.5638C65.8357 33.599 65.8313 33.633 65.8277 33.6677Z" fill="#FEFEFE"/>
<path d="M65.9602 32.085C65.5342 31.7622 65.0762 31.589 64.6124 31.5559C64.1092 31.5207 63.5959 31.6478 63.1051 31.9255L62.9951 31.7297C63.5238 31.43 64.0801 31.2925 64.6277 31.3316C65.0915 31.3646 65.5473 31.5235 65.9733 31.8161C65.9704 31.8711 65.9697 31.9255 65.9668 31.9805C65.9653 32.0157 65.9624 32.0498 65.9602 32.085Z" fill="#FEFEFE"/>
<path d="M66.0097 30.4975C65.5685 30.1973 65.1017 30.0487 64.6357 30.04C64.1325 30.0306 63.6265 30.1846 63.1503 30.4876L63.0301 30.2979C63.5427 29.9712 64.091 29.8046 64.6401 29.815C65.1046 29.8233 65.5685 29.958 66.009 30.228C66.009 30.283 66.0112 30.338 66.0112 30.393C66.0112 30.4276 66.0105 30.4623 66.0097 30.4975Z" fill="#FEFEFE"/>
<path d="M65.9762 28.9089C65.5189 28.6322 65.0456 28.5079 64.5803 28.5239C64.0765 28.5409 63.5791 28.7213 63.1204 29.0491L62.9901 28.8659C63.4852 28.5123 64.024 28.3177 64.5723 28.299C65.0369 28.283 65.5066 28.3935 65.9609 28.6405C65.9646 28.6949 65.9697 28.7493 65.9719 28.8044C65.974 28.8395 65.974 28.8742 65.9762 28.9089Z" fill="#FEFEFE"/>
<path d="M65.8605 27.3254C65.3886 27.073 64.9102 26.9735 64.4456 27.0136C63.9439 27.0576 63.4561 27.2633 63.0155 27.6147L62.8757 27.4387C63.3512 27.0598 63.8791 26.8371 64.426 26.7898C64.8891 26.7496 65.3638 26.8354 65.8313 27.0576C65.8371 27.112 65.8452 27.1665 65.8503 27.2209C65.8539 27.2561 65.8561 27.2902 65.8605 27.3254Z" fill="#FEFEFE"/>
<path d="M65.6602 25.7489C65.1775 25.5218 64.6932 25.4475 64.2323 25.5119C63.7328 25.5817 63.2573 25.8133 62.8357 26.1867L62.6864 26.0184C63.1415 25.6153 63.6571 25.365 64.2003 25.2891C64.6605 25.2248 65.1396 25.2853 65.6173 25.4833C65.6267 25.5377 65.6369 25.591 65.6457 25.6455C65.6515 25.6802 65.6558 25.7142 65.6602 25.7489Z" fill="#FEFEFE"/>
<path d="M65.3792 24.1862C64.8847 23.9845 64.3969 23.9355 63.9403 24.024C63.4452 24.1198 62.9821 24.376 62.5801 24.7709L62.4229 24.6108C62.8561 24.1841 63.3585 23.9074 63.8966 23.8029C64.3532 23.715 64.8352 23.7507 65.3224 23.9229C65.334 23.9768 65.3471 24.0295 65.3588 24.0834C65.3653 24.1175 65.3719 24.1517 65.3792 24.1862Z" fill="#FEFEFE"/>
<path d="M65.0165 22.6402C64.5119 22.4642 64.0233 22.4417 63.5711 22.5539C63.0818 22.6754 62.6325 22.9548 62.2524 23.3705L62.0864 23.2188C62.4971 22.77 62.9835 22.4675 63.5165 22.3355C63.9673 22.2233 64.45 22.2332 64.9466 22.3801C64.9605 22.4334 64.9765 22.4857 64.991 22.5385C64.9998 22.5725 65.0071 22.6061 65.0165 22.6402Z" fill="#FEFEFE"/>
<path d="M64.5731 21.1136C64.0604 20.9645 63.5704 20.9673 63.1255 21.1031C62.6434 21.25 62.2095 21.553 61.8512 21.988L61.6772 21.845C62.0638 21.3754 62.5342 21.0475 63.0592 20.8876C63.5041 20.7523 63.9862 20.7374 64.4893 20.8579C64.5061 20.9101 64.525 20.9613 64.5417 21.0141C64.5534 21.047 64.5621 21.0806 64.5731 21.1136Z" fill="#FEFEFE"/>
<path d="M64.0503 19.6139C63.5296 19.4918 63.0418 19.5199 62.6042 19.6788C62.1301 19.8509 61.7129 20.1759 61.3772 20.6291L61.1974 20.4955C61.5585 20.0066 62.0107 19.6546 62.5262 19.4676C62.9639 19.3087 63.4444 19.2685 63.9534 19.3626C63.9731 19.4137 63.9942 19.4643 64.0139 19.5154C64.0262 19.5485 64.0379 19.5809 64.0503 19.6139Z" fill="#FEFEFE"/>
<path d="M63.4502 18.1432C62.9245 18.0491 62.4381 18.103 62.0085 18.2845C61.5447 18.4808 61.1449 18.8273 60.834 19.2975L60.6469 19.1732C60.9818 18.6661 61.4151 18.2911 61.9211 18.0772C62.3486 17.8957 62.8269 17.8303 63.3396 17.8979C63.3621 17.9479 63.3862 17.9969 63.4087 18.0475C63.4226 18.0794 63.4357 18.1113 63.4502 18.1432Z" fill="#FEFEFE"/>
<path d="M62.7738 16.7067C62.2437 16.6402 61.7602 16.7194 61.3415 16.9229C60.8886 17.1434 60.5078 17.5102 60.2216 17.9964L60.0279 17.882C60.3367 17.3579 60.7495 16.9608 61.2425 16.7205C61.6604 16.5176 62.1352 16.4268 62.6507 16.4675C62.6762 16.5165 62.7024 16.5643 62.7272 16.6132C62.7432 16.644 62.7578 16.6754 62.7738 16.7067Z" fill="#FEFEFE"/>
<path d="M62.0223 15.3061C61.4901 15.2671 61.0117 15.3716 60.6046 15.5965C60.1634 15.8407 59.8022 16.2273 59.5415 16.7272L59.342 16.6233C59.6231 16.0838 60.0148 15.6658 60.4947 15.4002C60.9017 15.1753 61.3707 15.0598 61.8876 15.0736C61.9153 15.1208 61.9437 15.167 61.9714 15.2149C61.9889 15.2451 62.0056 15.2759 62.0223 15.3061Z" fill="#FEFEFE"/>
<path d="M61.2003 13.9485C60.6658 13.937 60.1932 14.0667 59.7986 14.3125C59.3712 14.5798 59.0304 14.984 58.7966 15.4972L58.5921 15.4042C58.844 14.8504 59.2139 14.4121 59.6784 14.1223C60.0738 13.8759 60.5355 13.7368 61.0525 13.723C61.083 13.7687 61.1143 13.8138 61.1435 13.86C61.1631 13.8891 61.1813 13.9188 61.2003 13.9485Z" fill="#FEFEFE"/>
<path d="M60.3068 12.6339C59.7731 12.651 59.3078 12.8044 58.9262 13.0711C58.5135 13.3598 58.1945 13.7822 57.9882 14.3069L57.7787 14.2244C58.0015 13.6579 58.3474 13.2015 58.7972 12.8869C59.1782 12.6207 59.6326 12.4574 60.1481 12.4167C60.1801 12.4607 60.2143 12.5041 60.2464 12.5487C60.2675 12.5767 60.2864 12.6053 60.3068 12.6339Z" fill="#FEFEFE"/>
<path d="M59.3471 11.3685C58.8145 11.4135 58.358 11.5911 57.9912 11.8777C57.5936 12.1879 57.2971 12.6256 57.1185 13.1607L56.905 13.0893C57.0981 12.5123 57.4198 12.0377 57.8521 11.7006C58.2188 11.4146 58.6637 11.2276 59.1767 11.16C59.2117 11.2024 59.2474 11.2436 59.2816 11.2865C59.3042 11.314 59.3245 11.3415 59.3471 11.3685Z" fill="#FEFEFE"/>
<path d="M58.3209 10.1561C57.7918 10.2293 57.3453 10.4306 56.9939 10.7358C56.6133 11.0663 56.34 11.5189 56.1899 12.0622L55.9732 12.0023C56.1354 11.416 56.4313 10.9255 56.8459 10.5658C57.1974 10.2612 57.6318 10.0511 58.1405 9.95703C58.1774 9.99774 58.2153 10.0368 58.2522 10.0781C58.2753 10.1039 58.2978 10.1303 58.3209 10.1561Z" fill="#FEFEFE"/>
<path d="M57.2339 8.99877C56.7092 9.09889 56.2742 9.32382 55.9388 9.64661C55.5758 9.99692 55.3273 10.4633 55.2051 11.0138L54.9857 10.9649C55.1172 10.3709 55.3872 9.86607 55.7821 9.48496C56.1169 9.16267 56.5399 8.93003 57.0431 8.80908C57.0821 8.84753 57.1217 8.88496 57.1608 8.92398C57.1855 8.94874 57.2092 8.97408 57.2339 8.99877Z" fill="#FEFEFE"/>
<path d="M56.0872 7.8994C55.5686 8.02697 55.1457 8.27447 54.8279 8.6143C54.4836 8.98282 54.2598 9.4618 54.1669 10.0178L53.9452 9.98097C54.0453 9.38097 54.2884 8.8618 54.6629 8.46088C54.9802 8.12156 55.391 7.86692 55.8866 7.72012C55.9278 7.75639 55.9696 7.79163 56.0103 7.82847C56.0361 7.85214 56.0614 7.87631 56.0872 7.8994Z" fill="#FEFEFE"/>
<path d="M54.8844 6.86054C54.3729 7.01508 53.9638 7.28404 53.6646 7.6404C53.3401 8.02639 53.141 8.51644 53.0777 9.07625L52.8539 9.05098C52.9227 8.44661 53.1388 7.91586 53.4919 7.49571C53.7911 7.13992 54.1876 6.86439 54.6748 6.69171C54.7177 6.72636 54.7612 6.75936 54.8041 6.794C54.831 6.816 54.8574 6.83854 54.8844 6.86054Z" fill="#FEFEFE"/>
<path d="M53.6295 5.8876C53.1268 6.06853 52.7325 6.3589 52.4521 6.73011C52.1479 7.13267 51.9753 7.6326 51.9411 8.19517L51.7168 8.18141C51.7536 7.57427 51.9411 7.03258 52.2716 6.59483C52.5521 6.22417 52.9338 5.92829 53.4111 5.73032C53.4557 5.76221 53.5013 5.79301 53.5459 5.82546C53.5739 5.8458 53.6014 5.86725 53.6295 5.8876Z" fill="#FEFEFE"/>
<path d="M52.325 4.98186C51.8327 5.18919 51.4539 5.49935 51.1932 5.88487C50.9105 6.30228 50.7642 6.81097 50.7598 7.37469L50.5349 7.37243C50.5398 6.76422 50.6988 6.21373 51.0062 5.75893C51.2663 5.37397 51.6321 5.05885 52.099 4.83612C52.1451 4.86582 52.1919 4.89386 52.2381 4.92356C52.2672 4.94281 52.2959 4.96261 52.325 4.98186Z" fill="#FEFEFE"/>
<path d="M50.9747 4.14401C50.4941 4.37664 50.1316 4.70606 49.8919 5.10531C49.6317 5.53702 49.5118 6.05231 49.5371 6.61546L49.3122 6.62536C49.2852 6.01712 49.4156 5.45948 49.6982 4.98927C49.9386 4.59112 50.2867 4.2573 50.7415 4.01038C50.7888 4.03733 50.8372 4.06317 50.8851 4.09067C50.9153 4.10827 50.9444 4.12642 50.9747 4.14401Z" fill="#FEFEFE"/>
<path d="M49.5828 3.37877C49.1148 3.63614 48.7705 3.98426 48.5516 4.39506C48.3146 4.83997 48.2217 5.36076 48.2761 5.92171L48.0523 5.94316C47.994 5.33767 48.0946 4.77397 48.3525 4.28947C48.5709 3.87922 48.9019 3.52725 49.3425 3.25723C49.3914 3.28198 49.4414 3.30508 49.4904 3.33038C49.5212 3.34577 49.5514 3.36282 49.5828 3.37877Z" fill="#FEFEFE"/>
<path d="M48.1526 2.68817C47.6989 2.96974 47.3733 3.33546 47.1759 3.75727C46.9626 4.21372 46.8977 4.73891 46.9812 5.29601L46.7585 5.32956C46.6683 4.72792 46.7398 4.15927 46.9719 3.66212C47.1688 3.24086 47.4806 2.8724 47.9068 2.57928C47.9569 2.60128 48.0075 2.62218 48.058 2.64472C48.0899 2.65847 48.1207 2.67387 48.1526 2.68817Z" fill="#FEFEFE"/>
<path d="M46.6884 2.07342C46.2495 2.37808 45.9438 2.76029 45.7689 3.192C45.5797 3.65945 45.5418 4.18685 45.6545 4.739L45.434 4.78409C45.3125 4.18795 45.3537 3.61656 45.5599 3.10786C45.7342 2.67725 46.0263 2.29229 46.4365 1.97772C46.4882 1.99697 46.5399 2.01512 46.591 2.03492C46.6235 2.04702 46.6554 2.06077 46.6884 2.07342Z" fill="#FEFEFE"/>
<path d="M45.1937 1.53525C44.7719 1.86246 44.486 2.26007 44.3342 2.70003C44.1697 3.17683 44.1598 3.70533 44.3012 4.25142L44.0834 4.30752C43.9305 3.71853 43.9421 3.14603 44.1208 2.62743C44.2726 2.18803 44.5443 1.78877 44.9375 1.45276C44.9897 1.46925 45.0425 1.48465 45.0948 1.50171C45.1278 1.51215 45.1607 1.52425 45.1937 1.53525Z" fill="#FEFEFE"/>
<path d="M43.6733 1.07582C43.2691 1.42503 43.0045 1.83694 42.8759 2.2846C42.7362 2.7691 42.7543 3.29759 42.9237 3.83489L42.7093 3.90253C42.5261 3.32234 42.5074 2.74985 42.6592 2.22245C42.7879 1.7759 43.0381 1.36289 43.4132 1.00708C43.466 1.02083 43.5193 1.03348 43.5726 1.04777C43.6062 1.05657 43.6392 1.06647 43.6733 1.07582Z" fill="#FEFEFE"/>
<path d="M42.1307 0.69684C41.7452 1.06695 41.5027 1.49206 41.3977 1.94576C41.2838 2.43687 41.3289 2.96371 41.5269 3.49166L41.3157 3.5703C41.1029 3.00055 41.0539 2.42971 41.1782 1.89517C41.2833 1.44256 41.5115 1.0169 41.8673 0.641846C41.9207 0.652844 41.9745 0.662744 42.0284 0.673743C42.0626 0.681442 42.0966 0.689691 42.1307 0.69684Z" fill="#FEFEFE"/>
<path d="M40.5698 0.399827C40.2046 0.789736 39.9846 1.22694 39.9032 1.68505C39.8153 2.18165 39.8884 2.70575 40.1133 3.22214L39.9071 3.31233C39.664 2.75414 39.5854 2.18659 39.6816 1.64655C39.7625 1.189 39.9682 0.751791 40.3042 0.358582C40.3586 0.36683 40.4125 0.373979 40.467 0.382228C40.5016 0.387728 40.5357 0.394327 40.5698 0.399827Z" fill="#FEFEFE"/>
<path d="M38.9965 0.184541C38.6517 0.5926 38.4548 1.04081 38.3976 1.50276C38.336 2.00321 38.4362 2.52236 38.688 3.02665L38.4867 3.12729C38.215 2.58285 38.1067 2.02026 38.1744 1.47581C38.2315 1.01441 38.4142 0.567302 38.7287 0.157043C38.7831 0.162543 38.8376 0.166394 38.8926 0.171893C38.9272 0.175742 38.9619 0.180691 38.9965 0.184541Z" fill="#FEFEFE"/>
<path d="M37.4136 0.0507958C37.0908 0.476453 36.9175 0.934557 36.8845 1.39871C36.8488 1.90191 36.9764 2.41501 37.2541 2.90556L37.0584 3.01609C36.7586 2.48705 36.6211 1.93051 36.6602 1.38331C36.6926 0.919703 36.8516 0.463805 37.1446 0.0375977C37.1997 0.0403474 37.2541 0.041447 37.3091 0.0441968C37.3437 0.0458466 37.3784 0.049146 37.4136 0.0507958Z" fill="#FEFEFE"/>
<path d="M35.6788 57.6661C50.7931 57.6661 63.0454 45.4135 63.0454 30.2992C63.0454 15.185 50.7931 2.93237 35.6788 2.93237C20.5645 2.93237 8.31192 15.185 8.31192 30.2992C8.31192 45.4135 20.5645 57.6661 35.6788 57.6661Z" stroke="#FEFEFE" stroke-width="0.0762" stroke-miterlimit="2.61313"/>
<path d="M14.8204 4.37836C6.57178 10.2479 2.83496 19.0217 1.98914 26.6032" stroke="#B26950" stroke-width="0.1" stroke-miterlimit="2.61313"/>
<path d="M6.51885 9.3233C3.57615 13.014 1.68979 17.1517 0.643799 21.1889" stroke="#B26950" stroke-width="0.1" stroke-miterlimit="2.61313"/>
<path d="M68.4032 27.2582C69.8879 37.2727 66.1524 46.0465 61.2723 51.9106" stroke="#B26950" stroke-width="0.1" stroke-miterlimit="2.61313"/>
<path d="M70.5913 36.67C69.9702 41.349 68.294 45.5764 66.1088 49.128" stroke="#B26950" stroke-width="0.1" stroke-miterlimit="2.61313"/>
<defs>
<radialGradient id="paint0_radial" cx="0" cy="0" r="1" gradientUnits="userSpaceOnUse" gradientTransform="translate(35.676 30.3173) rotate(-135) scale(98.4306)">
<stop stop-color="#FFD400"/>
<stop offset="0.0431373" stop-color="#D89E28"/>
<stop offset="0.870588" stop-color="#B26950"/>
<stop offset="1" stop-color="#B26950"/>
</radialGradient>
</defs>
</svg>
