<svg width="478" height="478" viewBox="0 0 478 478" fill="none" xmlns="http://www.w3.org/2000/svg">
<g clip-path="url(#clip0)">
<path d="M119.467 0C110.041 0 102.4 7.641 102.4 17.067V51.2H136.533V17.067C136.533 7.641 128.892 0 119.467 0Z" fill="white"/>
<path d="M358.4 0C348.974 0 341.333 7.641 341.333 17.067V51.2H375.466V17.067C375.467 7.641 367.826 0 358.4 0Z" fill="white"/>
<path d="M426.667 51.2H375.467V119.467C375.467 128.893 367.826 136.534 358.4 136.534C348.974 136.534 341.333 128.893 341.333 119.467V51.2H136.533V119.467C136.533 128.893 128.892 136.534 119.466 136.534C110.04 136.534 102.399 128.893 102.399 119.467V51.2H51.2C22.923 51.2 0 74.123 0 102.4V426.667C0 454.944 22.923 477.867 51.2 477.867H426.667C454.944 477.867 477.867 454.944 477.867 426.667V102.4C477.867 74.123 454.944 51.2 426.667 51.2ZM443.733 426.667C443.733 436.093 436.092 443.734 426.666 443.734H51.2C41.774 443.734 34.133 436.093 34.133 426.667V204.8H443.733V426.667Z" fill="white"/>
<path d="M353.408 243.942C346.744 237.273 335.936 237.27 329.267 243.933L204.8 368.401L148.599 312.2C141.93 305.536 131.122 305.54 124.458 312.209C117.794 318.878 117.798 329.686 124.467 336.35L192.734 404.617C199.399 411.28 210.202 411.28 216.866 404.617L353.4 268.083C360.068 261.419 360.072 250.611 353.408 243.942Z" fill="white"/>
</g>
<defs>
<clipPath id="clip0">
<rect width="477.867" height="477.867" fill="white"/>
</clipPath>
</defs>
</svg>
