<svg width="512" height="512" viewBox="0 0 512 512" fill="none" xmlns="http://www.w3.org/2000/svg">
<path d="M512 256C512 397.387 397.387 512 256 512C114.613 512 0 397.387 0 256C0 114.613 114.613 0 256 0C397.387 0 512 114.613 512 256Z" fill="#4A7AFF"/>
<path d="M334.262 75.3125V133.281C334.262 133.281 267.707 123.621 267.707 166.559V209.496H327.82L320.309 274.977H267.707V445.656H201.152V274.977L144.258 273.902V209.496H200.078V160.117C200.078 160.117 196.395 86.6602 268.781 73.168C298.84 67.5625 334.262 75.3125 334.262 75.3125V75.3125Z" fill="white"/>
</svg>
