<svg width="500" height="500" viewBox="0 0 500 500" fill="none" xmlns="http://www.w3.org/2000/svg">
<path d="M410 450H90C67.91 450 50 432.09 50 410V90C50 67.91 67.91 50 90 50H410C432.09 50 450 67.91 450 90V410C450 432.09 432.09 450 410 450Z" fill="#0068FF"/>
<path d="M180 50H410C432.091 50 450 67.9086 450 90V354H180V50Z" fill="white"/>
<path d="M450.01 353.7C414.81 376.56 371.64 390 325 390C294.81 390 266.07 384.35 240 374.16C204.33 359.75 190 398.2 140 388.2C170 378.2 174.66 334.7 166.55 326.79C131.44 292.08 110 245.81 110 195C110 137.41 137.53 85.66 181.28 49.98" fill="white"/>
<path d="M180 170H230L180 250H230M330 160V250M300 200V250M385 200C378.37 200 372.011 202.634 367.322 207.322C362.634 212.011 360 218.37 360 225C360 231.63 362.634 237.989 367.322 242.678C372.011 247.366 378.37 250 385 250C391.63 250 397.989 247.366 402.678 242.678C407.366 237.989 410 231.63 410 225C410 218.37 407.366 212.011 402.678 207.322C397.989 202.634 391.63 200 385 200ZM275 200C268.37 200 262.011 202.634 257.322 207.322C252.634 212.011 250 218.37 250 225C250 231.63 252.634 237.989 257.322 242.678C262.011 247.366 268.37 250 275 250C281.63 250 287.989 247.366 292.678 242.678C297.366 237.989 300 231.63 300 225C300 218.37 297.366 212.011 292.678 207.322C287.989 202.634 281.63 200 275 200Z" stroke="#0067FF" stroke-width="20" stroke-miterlimit="10" stroke-linecap="round" stroke-linejoin="round"/>
</svg>
